<?xml version="1.0" encoding="UTF-8"?>
<svg width="442px" height="511px" viewBox="0 0 442 511" version="1.1" xmlns="http://www.w3.org/2000/svg" xmlns:xlink="http://www.w3.org/1999/xlink">
    <title>Group 2</title>
    <defs>
        <filter color-interpolation-filters="auto" id="filter-1">
            <feColorMatrix in="SourceGraphic" type="matrix" values="0 0 0 0 0.030411 0 0 0 0 0.199409 0 0 0 0 0.720572 0 0 0 1.000000 0"></feColorMatrix>
        </filter>
    </defs>
    <g id="Page-1" stroke="none" stroke-width="1" fill="none" fill-rule="evenodd">
        <g id="Group-2" transform="translate(-215.000000, -86.000000)" filter="url(#filter-1)">
            <g transform="translate(215.928154, 86.729705)" id="Group" fill="#000000">
                <path d="M181.384529,189.622292 L189.678889,198.02708 L204.493263,183.407348 L210.203326,189.193434 L196.311733,202.902509 L203.793886,210.484277 L217.685479,196.775201 L223.420155,202.586227 L208.605781,217.205959 L216.90014,225.610747 L242.289085,200.555381 L206.773473,164.566927 L181.384529,189.622292 Z M140.69355,245.991112 L151.138884,251.49855 L160.388765,233.955349 L194.669296,252.030204 L201.598535,238.8883 L156.87267,215.306008 L140.69355,245.991112 Z M117.149197,331.092682 L146.396715,329.459358 L146.412345,329.739239 L117.799791,342.742711 L118.243289,350.684322 L148.125773,360.421145 L148.141403,360.701026 L118.893884,362.33435 L119.616766,375.278826 L170.100223,372.459584 L169.142892,355.316899 L138.461613,345.729966 L138.445983,345.450086 L167.867102,332.471648 L166.90977,315.328964 L116.426314,318.148206 L117.149197,331.092682 Z M137.321538,442.927231 L148.117648,438.143835 L139.686382,419.11449 L147.118719,415.82147 L155.024805,433.665486 L164.763729,429.350494 L156.857643,411.506478 L164.322016,408.199264 L172.753282,427.22861 L183.549392,422.445214 L169.099848,389.832632 L122.871994,410.314649 L137.321538,442.927231 Z M163.473122,488.192347 C171.708708,497.326781 181.502476,498.404207 190.324621,490.450179 L214.839256,468.347836 L204.890855,457.313648 L180.454293,479.345601 C177.487553,482.020407 174.752951,482.126998 172.570873,479.706764 C170.294941,477.182433 170.680246,474.051517 173.620961,471.400175 L164.094898,460.834419 C155.402873,468.671131 155.260999,479.083937 163.473122,488.192347 Z M223.390018,540.606204 C237.154644,548.00611 250.555615,543.872601 258.204397,529.645039 C265.853178,515.417476 261.926078,501.92856 248.161451,494.528654 C234.396825,487.128749 220.979262,491.29312 213.330481,505.520682 C205.681699,519.748244 209.594529,533.189706 223.390018,540.606204 Z M228.998018,530.174716 C223.504513,527.22139 222.531696,520.373039 226.663033,512.688304 C230.810963,504.972706 237.090808,502.023409 242.553451,504.960143 C248.016094,507.896876 249.019773,514.761819 244.871844,522.477417 C240.740506,530.162152 234.491524,533.128041 228.998018,530.174716 Z M291.565537,568.958804 L293.876228,552.157801 L298.70131,552.821408 L304.305141,570.710919 L320.759017,572.973868 L313.859167,552.677839 C319.444542,550.899413 323.073954,545.597992 323.88556,539.696813 C325.360774,528.970552 319.351758,521.74225 305.987323,519.9042 L283.736407,516.843967 L276.847303,566.934563 L291.565537,568.958804 Z M301.287734,543.273689 L295.212991,542.438212 L296.960332,529.733321 L303.069787,530.573572 C307.027049,531.117825 309.332326,534.158322 308.821491,537.872594 C308.301108,541.656291 305.418559,543.841813 301.287734,543.273689 Z" id="ELMEJOR" fill-rule="nonzero" transform="translate(220.265041, 368.770397) rotate(-79.000000) translate(-220.265041, -368.770397) "></path>
                <path d="M128.053058,67.1190651 L123.468893,56.0563227 L103.946919,64.1270456 L100.791054,56.5111518 L119.097013,48.9431507 L114.961742,38.9637036 L96.6557834,46.5317047 L93.4863159,38.8829837 L113.00829,30.8122608 L108.424124,19.7495185 L74.9672736,33.5811614 L94.5962073,80.950708 L128.053058,67.1190651 Z M176.198063,52.7515858 L174.004893,35.6962089 L178.90872,35.0670832 L189.145578,51.0905128 L205.867981,48.9451488 L193.722799,30.909901 C198.723721,27.6892988 200.873486,21.5390652 200.103157,15.5485403 C198.702972,4.65988031 190.897491,-0.822102107 177.314949,0.92044038 L154.700897,3.82166047 L161.239627,54.6706455 L176.198063,52.7515858 Z M178.909999,25.0373972 L172.736116,25.829462 L171.077645,12.9322142 L177.286807,12.1356234 C181.308651,11.6196498 184.374073,13.9844967 184.858926,17.7550035 C185.352843,21.5959871 183.10824,24.4987932 178.909999,25.0373972 Z M273.655684,59.4851722 L277.093128,48.0151472 L256.852439,41.9633011 L259.21887,34.0670228 L278.198776,39.741902 L281.299616,29.3950545 L262.31971,23.7201753 L264.696341,15.7898613 L284.93703,21.8417074 L288.374475,10.3716824 L253.685887,-2.84217094e-14 L238.967095,49.1134898 L273.655684,59.4851722 Z M324.279319,82.5802626 C336.028999,90.4674307 346.627826,89.4918299 352.520316,80.734029 C357.162884,73.8339435 355.372384,67.1957426 347.331664,59.4011685 L343.566842,55.7610265 C339.831542,52.1407016 338.616231,49.9979334 339.905833,48.081243 C341.195436,46.1645526 343.998426,45.8202206 347.482,48.1586272 C350.90653,50.4573998 352.551651,53.744795 350.894294,56.39915 L362.4078,64.127782 C368.003166,55.6841977 365.177821,46.125454 353.782402,38.47609 C343.65642,31.6788573 332.645241,32.1208267 326.891632,40.6722147 C322.447464,47.2774248 324.205584,54.6643886 331.666502,61.8557339 L335.431323,65.4958758 C339.638496,69.5613694 340.716356,71.5262605 339.367234,73.5314136 C337.958592,75.6250293 334.624209,75.6126552 330.874939,73.0958955 C327.332321,70.7178549 325.34262,67.2419602 326.596354,64.3594717 L315.082847,56.6308397 C309.259559,65.3494824 313.238161,75.1687027 324.279319,82.5802626 Z" id="ERES" fill-rule="nonzero"></path>
                <path d="M140.853704,299.253353 C141.242612,300.140958 141.672349,301.025919 142.142946,301.908201 C145.093834,307.440572 147.656378,312.901665 150.244294,319.13905 L150.729927,320.317863 L151.235327,321.563882 L151.653855,322.617455 L152.729497,325.360823 L156.400548,334.789411 L156.930561,336.133753 L157.16203,336.70998 L157.483573,337.492341 L157.801169,338.252375 L158.11597,338.992525 L158.273246,339.357178 L158.583808,340.06674 L158.893378,340.759721 L159.201559,341.434848 L159.508755,342.092696 L159.81537,342.73384 L159.969848,343.050924 L160.275081,343.665485 L160.478222,344.065677 L160.682566,344.461006 C162.250202,347.466128 163.844118,349.884261 165.691867,352.05787 C167.960289,354.72634 172.188218,356.831505 178.155358,358.362562 L178.686378,358.496165 L179.363688,358.659157 L179.871323,358.776164 L180.383334,358.889889 C182.037528,359.250611 183.80216,359.571384 185.672677,359.851865 L186.480797,359.969603 L187.291068,360.080963 L188.116294,360.187819 L188.953203,360.289721 L189.378136,360.339064 L190.230186,360.433287 L191.095732,360.522807 L191.534061,360.565842 L192.415061,360.647801 L193.308429,360.724938 L194.212694,360.797121 L195.359955,360.880508 L196.520171,360.955895 L196.990717,360.984001 L197.462684,361.010792 L198.124986,361.04601 C201.014931,361.193603 203.999761,361.267047 207.0174,361.27019 C203.988313,361.26771 200.99129,361.194271 198.089957,361.04601 L197.428041,361.010792 L196.956349,360.984001 L196.486078,360.955895 L195.326539,360.880508 L194.179947,360.797121 L193.276209,360.724938 L192.383363,360.647801 L191.502876,360.565842 L191.064803,360.522807 L190.199762,360.433287 L189.348209,360.339064 L188.923523,360.289721 L188.087103,360.187819 L187.262359,360.080963 L186.45256,359.969603 C184.281625,359.662218 182.248058,359.302142 180.358654,358.889889 L179.846941,358.776164 L179.339602,358.659157 L178.662687,358.496165 C172.418569,356.954851 168.009534,354.804824 165.675756,352.05787 C163.829085,349.884261 162.236098,347.466128 160.669377,344.461006 L160.465152,344.065677 L160.26213,343.665485 L159.957075,343.050924 L159.802686,342.73384 L159.496251,342.092696 L159.189234,341.434848 L158.881232,340.759721 L158.571846,340.06674 L158.261462,339.357178 L158.104278,338.992525 L157.789661,338.252375 L157.47225,337.492341 L157.150895,336.70998 L156.919561,336.133753 L156.389857,334.789411 L152.720947,325.360823 L151.645932,322.617455 L151.227649,321.563882 L150.722543,320.317863 C147.969403,313.584023 145.274061,307.786345 142.140571,301.908201 C141.682465,301.048835 141.263101,300.186929 140.882451,299.322512 L140.853704,299.253353 Z M299.789784,147.371709 L299.739137,147.878961 L299.739137,148.707855 L299.729896,149.897697 L299.720914,150.661892 L299.708834,151.40306 L299.693599,152.122527 L299.675155,152.82145 L299.65345,153.500984 L299.628429,154.162291 L299.60004,154.806533 L299.568228,155.434876 L299.532942,156.048491 L299.494128,156.64855 L299.429059,157.52729 L299.381296,158.097137 L299.3297,158.659057 L299.274325,159.212756 L299.245371,159.485296 L299.184049,160.030503 L299.118966,160.568883 L299.049893,161.103235 L298.976765,161.634761 L298.899516,162.164664 L298.81808,162.694142 L298.700285,163.410539 L298.519054,164.375582 L298.098629,166.51337 L296.473678,174.67258 L295.989736,177.144902 L295.544658,179.466673 L295.317496,180.682507 L295.116406,181.789273 L292.913409,194.188273 L292.415089,197.028504 L292.020083,199.30727 L291.63057,201.585782 L291.378774,203.079457 L290.972349,205.532659 L290.66156,207.450348 L290.366529,209.31139 L290.15552,210.671125 L289.888087,212.435449 L289.697749,213.724083 L289.400484,215.804114 L289.233758,217.014677 L289.076066,218.195552 L288.92728,219.348099 L288.787411,220.472727 L288.699045,221.207817 L288.574136,222.286175 L288.45809,223.338354 L288.350998,224.36412 L288.284501,225.034307 L288.192436,226.016155 L288.135916,226.658077 L288.083473,227.28801 L288.012389,228.211324 L287.96988,228.814985 L287.913825,229.697868 L287.866738,230.558151 L287.82871,231.395218 L287.79976,232.209489 L287.785475,232.741265 L287.775288,233.261897 L287.769161,233.772841 L287.764656,234.771438 L287.75742,235.280175 L287.745414,235.808065 L287.728667,236.354245 L287.707209,236.918195 L287.681074,237.499403 L287.650295,238.097365 L287.614909,238.711583 L287.57495,239.341565 L287.530456,239.98682 L287.481466,240.646864 L287.399555,241.664542 L287.339565,242.358513 L287.241221,243.426162 L287.13327,244.520812 L287.056071,245.264505 L286.932196,246.402899 L286.844561,247.17381 L286.752736,247.955516 L286.656846,248.746797 L286.505387,249.951331 L286.399592,250.763814 L286.233331,251.998967 L286.058458,253.249734 L285.937202,254.091206 L285.812088,254.939403 L285.617345,256.222706 L285.414449,257.51642 L285.203439,258.819615 L284.984451,260.130723 L284.757622,261.448176 L284.602228,262.32858 L284.362519,263.653769 L284.115448,264.980473 L283.946775,265.864696 L283.687417,267.192191 L283.553975,267.860975 L283.282223,269.19577 L283.144649,269.858116 L282.864359,271.181083 L282.578809,272.493942 L282.350659,273.518808 L282.134438,274.47123 C281.296268,278.128542 280.396755,281.654881 279.441017,285.026185 L279.079989,286.283109 L278.729402,287.472813 L278.374399,288.647664 L278.01429,289.809873 L277.802236,290.480755 L277.599054,291.114457 C275.662532,297.112171 273.547044,302.468616 271.285416,307.070793 L270.927107,307.791168 L270.426038,308.778659 L270.203321,309.223228 C268.691841,312.257831 267.282282,315.447262 265.813441,319.139553 L265.473352,320.000705 L265.131364,320.879758 L264.705711,321.999038 L263.266808,325.855629 L260.995027,332.017515 L260.701898,332.794491 L260.268873,333.92406 L259.985873,334.649367 L259.706286,335.355039 L259.430092,336.040799 L259.156952,336.707192 L258.88653,337.354765 L258.618489,337.984067 L258.486148,338.289977 L258.155129,339.040804 L257.825301,339.767845 L257.563433,340.329571 L257.302269,340.875791 L257.172732,341.141439 L257.042394,341.405199 L256.780714,341.923959 L256.519649,342.427038 L256.346009,342.753638 L256.172615,343.073432 L255.997699,343.389631 L255.731236,343.859125 L255.465551,344.312704 L255.199836,344.752167 C255.021597,345.04223 254.841146,345.326492 254.658365,345.605111 L254.382431,346.018824 L254.099739,346.42877 L253.845434,346.785945 L253.590102,347.134076 C253.332242,347.480435 253.066807,347.821465 252.793892,348.157004 C249.103567,352.694117 244.443502,355.402941 238.122553,356.606813 C227.248976,358.677767 212.301178,359.604911 199.174975,359.012242 L198.217857,358.966159 L197.112879,358.905699 L196.194813,358.849494 L195.28691,358.788427 L194.838792,358.756212 L193.945283,358.687781 L193.064562,358.61467 L192.19497,358.536762 L191.336654,358.454069 L190.913781,358.411135 L190.070647,358.321085 L189.656531,358.274612 L188.628951,358.152685 L187.617744,358.023079 L186.824096,357.914299 L185.851652,357.772075 L184.893867,357.621831 L184.362184,357.533821 L183.783523,357.434138 C182.305677,357.174202 180.906274,356.886475 179.59059,356.571902 L178.93975,356.412383 L178.298703,356.247295 L177.831599,356.121674 L177.373788,355.993959 L176.922638,355.863383 L176.478971,355.730169 L175.894551,355.546963 L175.591717,355.448326 L175.282557,355.344927 C171.498764,354.061966 168.795645,352.494477 167.278296,350.709537 C165.614597,348.752436 164.162966,346.574899 162.732508,343.885051 L162.426235,343.300707 L162.127821,342.715239 L161.831228,342.11769 L161.684008,341.815349 L161.38511,341.190099 L161.086339,340.550029 L160.786048,339.891958 L160.483867,339.215321 L160.179992,338.520856 L159.872353,337.804109 L159.718453,337.440572 L159.405997,336.692801 L158.99193,335.681427 L158.471388,334.366966 L154.020024,322.944565 L153.157108,320.76228 L152.99395,320.357136 L152.657383,319.530523 L152.336691,318.750187 C149.832744,312.685416 147.357782,307.350659 144.54686,301.99922 L143.980088,300.928488 L143.740901,300.472625 L143.514505,300.026552 C136.238712,285.445254 140.781516,270.071624 157.32157,253.733486 L157.826456,253.238096 L158.324312,252.755208 L159.213992,252.056914 C159.823529,251.580682 160.429446,251.113494 161.031738,250.655349 L161.932457,249.974914 L162.827738,249.308045 C172.864086,241.885731 181.868453,237.035998 189.824839,234.755669 L190.365696,234.604174 L190.590532,234.543355 L190.686796,234.963643 L192.714064,234.500263 L192.612766,234.052029 L192.83643,234.00384 C195.263386,233.491926 197.584077,233.236449 199.798595,233.236449 C216.28215,233.236449 219.993152,237.126465 212.742363,246.357566 L212.519289,246.638933 L211.637675,247.74312 L208.894732,251.198705 L202.770601,258.969366 L197.459362,265.738915 L196.929786,266.117962 L197.035135,266.280206 L190.53558,274.588131 L176.114633,293.066356 L177.757001,294.346312 L186.571748,283.045381 L195.603088,271.487735 L198.320829,268.019105 L198.355884,268.061437 C201.455017,271.710741 205.711063,273.716725 210.488991,273.828374 L210.911911,273.833303 L211.099099,273.831662 C214.725629,273.767788 217.41771,271.83736 219.520469,267.794273 L219.694342,267.452453 L219.728925,267.380485 L219.786433,267.593512 C221.782557,274.872105 226.186255,277.065638 232.555926,273.713509 C244.143206,267.61554 250.902509,254.33579 258.364517,222.471991 L258.59086,221.500721 L260.16008,213.657315 L260.672577,212.73507 L260.781512,212.532058 C260.918812,212.272819 261.060381,211.993017 261.206588,211.692207 L261.354354,211.384378 L261.591326,210.875694 L261.714304,210.605006 L261.963236,210.044013 L262.215251,209.459596 L262.345115,209.152466 L262.605379,208.52536 L262.939298,207.699773 L263.278084,206.839752 L263.553932,206.123982 L263.693738,205.756148 L263.973721,205.009611 L264.257005,204.24134 L264.542553,203.454218 L264.829954,202.649484 L265.118796,201.828378 L265.408664,200.992146 L265.844206,199.712959 L266.135082,198.843577 L266.569793,197.521681 L267.002357,196.179057 L267.288929,195.274248 L267.714094,193.908517 L267.994562,192.991739 L268.340681,191.842065 L268.680344,190.693029 L268.947619,189.773406 L269.21024,188.855586 L269.531668,187.711533 L269.965708,186.126349 L270.087002,185.674205 L270.323085,184.78134 L270.552543,183.895841 L270.774598,183.020278 L270.988826,182.155897 L271.194806,181.303936 L271.392115,180.465634 L271.487814,180.050134 L271.670896,179.236482 L271.844679,178.437701 L272.008312,177.656861 L272.170752,176.847338 L272.31114,176.112498 L272.439326,175.404196 L272.469451,175.231316 L272.498803,175.060127 L272.608451,174.392412 L272.750485,173.47516 L272.837498,172.93487 C274.304948,163.985788 277.466391,152.535437 281.108289,142.708885 L281.46219,141.763136 L281.691917,141.159197 L281.921472,140.563777 L282.265277,139.686954 L282.608166,138.830155 L282.836092,138.270332 L283.063376,137.719788 L283.289922,137.178675 L283.515636,136.647144 L283.852442,135.868147 L284.186846,135.111564 L284.408291,134.619881 L284.737986,133.901794 L284.955997,133.436249 L285.172469,132.981424 L285.387307,132.537473 L285.600419,132.104546 L285.811708,131.682795 L286.021082,131.272372 L286.331344,130.67831 L286.535515,130.296871 L286.73744,129.927292 L286.937025,129.569724 L287.134175,129.224319 L287.328796,128.891229 L287.520794,128.570606 L287.568373,128.492416 L287.61578,128.415016 L287.803667,128.113377 L287.988694,127.824584 L288.034493,127.754411 L288.080107,127.685052 L288.260669,127.415813 L288.438137,127.159799 L288.612416,126.917163 L288.783411,126.688056 L288.867648,126.578623 L288.951029,126.47263 L289.115175,126.271036 L289.155658,126.222817 L289.195917,126.175474 L289.354679,125.994914 L289.509733,125.828567 L289.660985,125.676584 L289.735156,125.606026 L289.808341,125.539116 L289.951706,125.416316 C290.187271,125.223958 290.500114,125.077909 290.890235,124.978172 C298.448238,123.260613 301.414754,130.725125 299.789784,147.371709 Z M224.862508,319.770213 L224.602356,319.773155 C222.597762,319.837696 220.361406,320.867531 217.915083,322.839578 L217.915083,322.839578 L217.826,322.912 L217.632408,322.835605 C215.454535,321.988115 213.557717,321.527417 211.937196,321.457353 C210.919706,321.355441 209.980925,321.416205 209.128796,321.648894 C206.081711,322.480955 204.571846,325.444084 204.571846,330.517062 C204.571846,335.496003 206.565585,339.080714 210.344168,341.071927 C213.22716,342.591186 217.068583,343.09856 221.061894,342.565453 C224.437801,342.11477 228.013686,339.62388 230.276294,336.180032 C231.809534,333.846333 232.604419,331.318603 232.57114,328.835664 C232.579553,328.168377 232.512178,327.512014 232.368751,326.881068 C232.152406,325.764689 231.752525,324.668837 231.175114,323.628198 C229.803882,321.156898 227.946391,319.863628 225.681422,319.775227 L225.681422,319.775227 L225.367772,319.770709 L225.120021,319.77823 L224.862508,319.770213 Z M218.959093,333.781924 C220.489845,333.6181 222.142945,333.663235 223.711795,333.905542 C225.397193,334.234641 227.047289,334.839637 228.644847,335.718703 L228.644847,335.718703 L228.772,335.834 L228.655475,335.998216 C226.607965,338.793427 223.614181,340.775966 220.872013,341.142046 C217.16154,341.637393 213.612888,341.171369 211.013195,339.8014 L211.013195,339.8014 L210.655754,339.604133 C209.836866,339.131038 209.124053,338.568322 208.519147,337.916307 L208.519147,337.916307 L208.374,337.753 L208.563185,337.621595 C210.512099,336.285212 212.48111,335.282639 214.469554,334.613024 C214.890057,334.49943 215.361892,334.387315 215.865031,334.28289 L215.865031,334.28289 L216.30894,334.194276 L216.99283,334.070202 L217.707625,333.953936 L218.454719,333.844137 Z M164.071846,320.270295 C162.414991,320.270295 161.071846,321.613441 161.071846,323.270295 C161.071846,324.92715 162.414991,326.270295 164.071846,326.270295 C165.7287,326.270295 167.071846,324.92715 167.071846,323.270295 C167.071846,321.613441 165.7287,320.270295 164.071846,320.270295 Z M197.071846,298.270295 C192.653568,298.270295 189.071846,301.852017 189.071846,306.270295 C189.071846,310.688573 192.653568,314.270295 197.071846,314.270295 C201.490124,314.270295 205.071846,310.688573 205.071846,306.270295 C205.071846,301.852017 201.490124,298.270295 197.071846,298.270295 Z M151.944667,277.113349 C147.986012,287.166265 150.335515,299.123254 158.684574,312.872167 C159.518424,314.24532 161.30555,314.681293 162.676233,313.84594 C164.046915,313.010587 164.482103,311.22024 163.648253,309.847087 C156.156779,297.510411 154.160007,287.348528 157.34934,279.249289 C157.938102,277.75414 157.205511,276.063936 155.713052,275.474112 C154.220593,274.884289 152.533429,275.6182 151.944667,277.113349 Z M236.071846,295.270295 C231.653568,295.270295 228.071846,298.852017 228.071846,303.270295 C228.071846,307.688573 231.653568,311.270295 236.071846,311.270295 C240.490124,311.270295 244.071846,307.688573 244.071846,303.270295 C244.071846,298.852017 240.490124,295.270295 236.071846,295.270295 Z M244.234421,183.217673 C247.985299,184.467842 251.197602,186.733179 253.622379,189.948328 C256.910703,194.308503 258.617768,200.234417 258.617768,207.733297 C258.617768,209.349072 258.512123,210.658366 258.286368,211.993069 L258.206648,212.439367 L258.090675,213.036445 L258.074358,213.132644 L258.062903,213.21686 L258.055683,213.314046 L258.055126,213.405307 L258.061497,213.492774 L258.064972,213.513665 L256.555879,221.061488 L256.333798,222.014498 C249.086557,252.964871 242.621816,265.87331 231.912041,271.696892 L231.586198,271.871207 L231.410709,271.962305 C226.128368,274.666266 222.968455,272.804776 221.492065,265.833583 L221.424091,265.503064 L221.334129,265.033606 L221.248838,264.549775 L221.168191,264.051539 L221.147873,263.918823 L221.274822,263.54614 C221.821686,261.908509 222.334105,260.040945 222.822397,257.913818 L222.968171,257.267863 L223.154773,256.408514 L223.328257,255.575931 L223.50011,254.718435 L223.66979,253.839029 L223.837435,252.937546 L224.003182,252.013822 L224.085777,251.541323 L224.248536,250.586177 L224.346462,249.984266 L224.442694,249.357047 L224.536957,248.706195 L224.629272,248.031661 L224.675068,247.682729 L224.764127,246.975358 L224.851639,246.241435 L224.937249,245.483695 L225.020968,244.702111 L225.062335,244.300284 L225.143015,243.48497 L225.222036,242.643669 L225.299188,241.778444 L225.374475,240.88928 L225.447901,239.976159 L225.51947,239.039068 L225.589185,238.077995 L225.657049,237.092926 L225.755337,235.570955 L225.849518,233.99425 L225.910033,232.912502 L225.96867,231.807314 L226.025466,230.67808 L226.107189,228.93962 L226.184802,227.146494 L226.258282,225.299211 L226.327632,223.397754 L226.371586,222.099612 L226.434044,220.108232 L226.492391,218.062241 L226.529008,216.667778 L226.580475,214.531756 L226.627832,212.341147 L226.671069,210.096288 L226.710188,207.79717 L226.755939,204.647531 L226.77608,203.035866 L226.802848,200.574182 L226.832141,197.207377 L226.849316,194.618515 L226.865305,191.046949 L227.02383,190.916988 L227.550392,190.488387 L228.069687,190.072566 L228.325125,189.870606 L228.837125,189.471022 L229.088509,189.277468 L229.590714,188.8961 L230.085385,188.527607 L230.572316,188.17207 L231.056121,187.826111 L231.532148,187.493106 L231.765213,187.332831 L232.234454,187.01577 L232.462621,186.864427 L232.922612,186.565035 L233.260353,186.350281 L233.595495,186.141542 L234.037875,185.872892 L234.253887,185.744667 L234.687879,185.493029 L235.006223,185.313747 L235.319412,185.141832 C236.611619,184.441987 237.817275,183.907455 238.932187,183.538738 L239.346017,183.408242 L239.699924,183.307065 L239.922587,183.248705 L240.149852,183.193322 L240.385269,183.140767 C241.865835,182.826061 243.148578,182.855761 244.234421,183.217673 Z M170.640204,94.2703002 C166.588149,94.2745501 163.752953,97.1286499 161.745347,102.921205 L161.618323,103.294934 L161.419621,103.90892 L161.251089,104.457286 L161.086753,105.018354 L160.978803,105.402021 L160.872891,105.790826 L160.717202,106.385818 L160.614534,106.794193 L160.463925,107.417734 L160.364529,107.845834 L160.266633,108.280989 L160.122097,108.948926 L159.979531,109.638695 L159.838998,110.349978 L159.700273,111.083738 L159.56313,111.840943 L159.427347,112.622562 L159.292699,113.429567 L159.114669,114.54599 L158.981685,115.416769 L158.849217,116.315425 L158.672912,117.559274 L158.496306,118.858711 L158.27453,120.563326 L158.095512,121.995282 L157.86915,123.872384 L157.638796,125.851958 L157.224518,129.552502 L156.601245,135.274977 L156.531866,135.932025 L156.46455,136.607775 L156.399531,137.299884 L156.336791,138.008307 L156.276313,138.733001 L156.189868,139.849543 L156.1349,140.615603 L156.056731,141.792715 L156.007258,142.598832 L155.937223,143.836025 L155.871963,145.10974 L155.811474,146.419032 L155.77375,147.312174 L155.721133,148.67975 L155.673135,150.083015 L155.629735,151.521176 L155.590887,152.994043 L155.556543,154.501425 L155.517689,156.564196 L155.493674,158.151783 L155.480085,159.229104 L155.45868,161.427148 L155.447597,163.115685 L155.439382,165.417986 L155.438486,166.003939 L155.438379,167.610258 L155.444249,170.00247 L155.45717,172.450136 L155.472522,174.449294 L155.495684,176.801613 L155.528525,179.502148 L155.557688,181.551668 L155.614908,185.024054 L155.668459,187.864931 L155.745101,191.509332 L155.796276,193.75363 L155.910262,198.388692 L156.4926,219.233588 L156.559121,222.073461 L156.590082,224.008121 L156.594832,224.7039 L156.594611,251.532098 L156.372671,251.747742 L155.839225,252.27136 C148.720198,259.308382 143.733718,266.235262 140.892038,273.03912 L140.875341,273.075295 L140.887471,273.046122 C143.726997,266.240015 148.711546,259.310796 155.828861,252.27136 L156.361996,251.747742 L156.583807,251.532098 L156.584027,224.7039 L156.57928,224.008121 L156.548338,222.073461 L156.481855,219.233588 L155.899856,198.388692 L155.785938,193.75363 L155.734792,191.509332 L155.658195,187.864931 L155.604675,185.024054 L155.547489,181.551668 L155.518343,179.502148 L155.485521,176.801613 L155.462372,174.449294 L155.447029,172.450136 L155.434115,170.00247 L155.428249,167.610258 L155.428356,166.003939 L155.429252,165.417986 L155.437461,163.115685 L155.448538,161.427148 L155.469931,159.229104 L155.483511,158.151783 L155.507513,156.564196 L155.546344,154.501425 L155.580668,152.994043 L155.619494,151.521176 L155.662869,150.083015 L155.710838,148.67975 L155.763424,147.312174 L155.801126,146.419032 L155.86158,145.10974 L155.926802,143.836025 L155.996796,142.598832 L156.04624,141.792715 L156.124363,140.615603 L156.179299,139.849543 L156.265694,138.733001 L156.326137,138.008307 L156.38884,137.299884 L156.453821,136.607775 L156.521098,135.932025 L156.590437,135.274977 L157.213346,129.552502 L157.627383,125.851958 L157.857602,123.872384 L158.083832,121.995282 L158.262746,120.563326 L158.484392,118.858711 L158.660895,117.559274 L158.837098,116.315425 L158.969488,115.416769 L159.102395,114.54599 L159.28032,113.429567 L159.41489,112.622562 L159.550594,111.840943 L159.687657,111.083738 L159.826301,110.349978 L159.966752,109.638695 L160.109235,108.948926 L160.253687,108.280989 L160.351526,107.845834 L160.450864,107.417734 L160.601385,106.794193 L160.703993,106.385818 L160.859591,105.790826 L160.965442,105.402021 L161.073329,105.018354 L161.237568,104.457286 L161.406002,103.90892 L161.604588,103.294934 C163.619418,97.2469787 166.489539,94.2702955 170.630268,94.2702955 L170.640204,94.2703002 Z M211.770639,179.107311 C216.138836,179.107311 220.213231,182.441063 223.963724,189.250085 L224.188365,189.662798 L224.473649,190.20112 L224.784772,190.807012 L224.76201,195.471679 L224.736425,198.880069 L224.720902,200.547539 L224.684377,203.811395 L224.652207,206.195215 L224.602928,209.289637 L224.561197,211.546491 L224.515364,213.74921 L224.465436,215.897505 L224.411414,217.991367 L224.333006,220.698857 L224.269447,222.665304 L224.201787,224.577646 L224.130041,226.435505 L224.054209,228.238866 L224.001408,229.410342 L223.946774,230.558045 L223.861398,232.23468 L223.802263,233.321237 L223.741291,234.384071 L223.646404,235.933447 L223.580953,236.934983 L223.479288,238.393385 L223.409342,239.334111 L223.337549,240.251226 L223.26396,241.144018 L223.18858,242.012471 L223.111411,242.856572 L223.072339,243.267574 L222.992314,244.077026 L222.951941,244.469563 L222.869221,245.242583 L222.784949,245.989087 L222.677412,246.885575 L222.566594,247.748283 L222.47621,248.409052 L222.384107,249.045245 L222.290302,249.656817 L222.243281,249.950165 L222.115865,250.710903 L221.955859,251.634555 L221.794562,252.534364 L221.631694,253.411493 L221.467149,254.266075 L221.384757,254.682214 L221.216959,255.505965 L221.133109,255.905764 L221.04843,256.301661 L220.876537,257.081466 L220.703984,257.832712 L220.52757,258.569129 L220.34964,259.280337 L220.278439,259.556401 L220.133452,260.1039 L219.98698,260.637426 L219.950124,260.768636 L219.91317,260.89898 L219.764364,261.411728 L219.613927,261.910746 L219.53808,262.155135 L219.461803,262.396129 L219.307931,262.867974 L219.152254,263.326377 L218.994714,263.771437 L218.835251,264.203248 L218.795078,264.309142 L218.75478,264.414216 L218.592324,264.826337 L218.4278,265.225451 L218.261148,265.611656 L218.177007,265.799948 L218.007055,266.166969 L217.878103,266.433916 L217.747847,266.693779 L217.572103,267.029312 L217.39394,267.352418 L217.303933,267.509341 L217.213299,267.663194 L217.030121,267.961737 C215.429226,270.499863 213.535181,271.66685 211.175969,271.746969 L210.911911,271.751413 L210.660874,271.749456 C206.451056,271.683695 202.730298,269.961856 199.99553,266.775411 L199.742049,266.472397 L199.636192,266.340581 L202.755519,262.359466 L207.976041,255.721447 L212.289848,250.267444 L214.146061,247.938315 L214.408576,247.606603 C222.848136,236.822887 217.884852,231.26628 200.334283,231.156227 L199.798595,231.154559 L199.35191,231.157772 C197.336413,231.186688 195.247851,231.410763 193.086341,231.829445 L192.363136,231.976213 L192.174485,232.016982 L192.156947,231.930587 C189.794667,219.999009 190.861883,207.254093 195.570942,193.17504 L195.841383,192.376684 L195.896783,192.39644 L195.878765,192.267886 L195.987877,191.952384 L196.098199,191.636434 L196.356797,190.899358 L196.190325,190.840842 L196.562856,190.326058 L196.9603,189.787855 L197.355792,189.263747 L197.675614,188.848341 L197.993731,188.442647 C198.470455,187.840354 198.945107,187.26624 199.417075,186.721045 L199.888125,186.185518 L200.276116,185.757417 L200.659125,185.346504 L200.872178,185.123008 L201.087063,184.901221 C204.879127,181.02012 208.447021,179.107311 211.770639,179.107311 Z M159.071846,264.270295 C157.414991,264.270295 156.071846,265.613441 156.071846,267.270295 C156.071846,268.92715 157.414991,270.270295 159.071846,270.270295 C160.7287,270.270295 162.071846,268.92715 162.071846,267.270295 C162.071846,265.613441 160.7287,264.270295 159.071846,264.270295 Z M170.649271,96.3521854 C178.293478,96.3521854 184.935344,105.31072 185.214804,115.956723 L185.221911,116.324484 L185.225486,116.953713 L185.230178,117.277331 L185.238004,117.618626 L185.255535,118.161827 L185.280078,118.745963 L185.311575,119.369716 L185.350011,120.033282 L185.379537,120.498677 L185.466532,121.735839 L185.528146,122.534458 L185.645954,123.951671 L185.754151,125.167657 L185.906594,126.787702 L186.117736,128.908253 L186.322206,130.866809 L186.595268,133.379418 L186.898658,136.070245 L187.290883,139.4343 L187.65995,142.511074 L187.922857,144.661414 L188.488923,149.198332 L188.870185,152.195617 L189.439209,156.598891 L190.140079,161.928509 L190.992993,168.303232 L191.703574,173.538979 L192.677772,180.626914 L193.482694,186.417455 L194.121244,190.980849 L194.069191,191.130225 L193.715839,191.628932 L193.877238,191.685732 C188.907429,206.168052 187.675776,219.333448 189.988038,231.676093 L190.120142,232.360953 L190.149128,232.505706 L189.844395,232.587793 C180.924713,235.022735 170.820602,240.560368 159.511887,249.195993 L158.818011,249.728576 L158.676706,249.837439 L158.675223,224.358864 L158.661233,223.16132 L158.621051,221.112868 L158.52713,217.41789 L158.098454,202.364319 L157.97162,197.54915 L157.877805,193.70511 L157.779471,189.266323 L157.709401,185.690949 L157.650109,182.20748 L157.610437,179.474605 L157.570531,176.10933 L157.546333,173.430183 L157.528361,170.480484 L157.521093,168.08532 L157.52059,166.01057 L157.524638,164.272786 L157.536535,162.007402 L157.555949,159.802094 L157.582981,157.657057 L157.608308,156.088547 L157.638022,154.554064 L157.672161,153.05421 L157.710766,151.589207 L157.753878,150.159273 L157.785125,149.226107 L157.835857,147.85459 L157.872204,146.960983 L157.910634,146.082734 L157.951139,145.220473 L157.993729,144.374267 L158.038417,143.544185 L158.109447,142.328707 L158.185223,141.150585 L158.238356,140.386485 L158.293692,139.638069 L158.351188,138.906202 L158.410854,138.190957 L158.472698,137.492408 L158.53673,136.810631 L158.602958,136.145705 L159.427787,128.5711 L159.660778,126.497039 L159.936142,124.122797 L160.071366,122.992881 L160.294285,121.187216 L160.470602,119.812948 L160.602023,118.821415 L160.776736,117.548443 L160.907409,116.631092 L161.081911,115.453398 L161.256861,114.327752 L161.432818,113.251359 L161.565589,112.475913 L161.654591,111.973567 L161.789485,111.238442 L161.971491,110.295561 L162.109512,109.616864 L162.249563,108.958892 L162.391634,108.321751 L162.535924,107.704493 L162.633111,107.304948 L162.781869,106.717324 L162.933034,106.148416 L163.035005,105.779852 L163.138745,105.416755 L163.243912,105.060351 L163.404987,104.535974 L163.513464,104.196711 L163.594272,103.951134 L163.675477,103.710529 C165.415102,98.6217339 167.620703,96.3521854 170.649271,96.3521854 Z M289.317952,123.367252 C288.676069,123.744452 288.024449,124.34377 287.354846,125.149068 L287.130967,125.425107 L286.914905,125.704256 L286.692302,126.004487 L286.523643,126.240307 L286.355559,126.482359 L286.131384,126.815844 L286.015815,126.992364 L285.791463,127.343987 L285.563352,127.713146 L285.504052,127.810972 L285.218879,128.292273 L284.927992,128.800939 L284.638525,129.324454 L284.404204,129.760494 L284.168652,130.209627 L283.871299,130.791669 L283.574488,131.389066 L283.334765,131.883208 L283.093903,132.38997 L282.851929,132.90924 L282.608875,133.440908 L282.364769,133.984859 L281.997217,134.822418 L281.750127,135.397726 L281.502609,135.983764 L281.254196,136.581562 L280.880377,137.499075 L280.629492,138.126733 L280.378241,138.764757 L280.126267,139.414003 L279.873609,140.07435 L279.493735,141.084594 L279.239233,141.772982 L279.111643,142.121558 L278.825928,142.910828 L278.541671,143.708224 L278.166006,144.780848 L277.978926,145.323076 L277.609645,146.409439 L277.425804,146.958292 L277.063291,148.056599 L276.705208,149.162825 L276.52781,149.718931 L276.352133,150.275054 L276.005415,151.388829 L275.748924,152.227055 L275.496149,153.06551 L275.165062,154.183138 L275.001724,154.742952 L274.840471,155.301329 L274.523785,156.415159 L274.21418,157.527444 L273.913183,158.632697 L273.765375,159.184652 L273.619997,159.733818 L273.336131,160.825205 L273.061087,161.908781 L272.79551,162.982151 L272.666098,163.515778 L272.539474,164.045201 L272.294201,165.093024 L272.136138,165.785448 L272.033162,166.244569 L271.932635,166.699351 L271.834495,167.150074 L271.622257,168.150046 L271.494895,168.768752 L271.312282,169.684476 L271.225318,170.134107 L271.141234,170.578334 L270.971323,171.508945 L270.890549,171.96934 L270.812974,172.424532 L270.739026,172.871989 L270.66866,173.311999 L270.551245,174.07149 L270.493963,174.425936 L270.433885,174.783313 C270.318314,175.458207 270.183622,176.176486 270.030732,176.934146 L269.912668,177.509714 L269.712277,178.448991 L269.496941,179.415992 L269.314982,180.205481 L269.124514,181.009276 L268.92593,181.826182 L268.71962,182.655008 L268.505978,183.494569 L268.396892,183.916601 L268.172624,184.771448 L267.824746,186.066694 L267.585923,186.93653 L267.341496,187.812066 L267.092088,188.691272 L266.83809,189.572976 L266.579894,190.456008 L266.317891,191.339198 L266.052474,192.221376 L265.784034,193.101372 L265.512963,193.978019 L265.102058,195.284859 L264.82635,196.147307 L264.549161,197.003022 L264.271108,197.850125 L263.992585,198.687447 L263.57452,199.92329 L263.157859,201.129799 L262.743691,202.303752 L262.46994,203.065461 L262.197999,203.81059 L261.928566,204.537113 L261.662044,205.243841 L261.39884,205.929582 L261.139365,206.593136 L260.884034,207.233295 L260.699863,207.684893 L260.698374,207.510295 L260.812397,207.233295 L261.067579,206.593136 L261.326903,205.929582 L261.589953,205.243841 L261.856319,204.537113 L262.125596,203.81059 L262.397378,203.065461 L262.670969,202.303752 L263.084895,201.129799 L263.501314,199.92329 L263.919134,198.687447 L264.197495,197.850125 L264.475386,197.003022 L264.752413,196.147307 L265.027961,195.284859 L265.438626,193.978019 L265.709538,193.101372 L265.977822,192.221376 L266.243085,191.339198 L266.504934,190.456008 L266.76298,189.572976 L267.01683,188.691272 L267.266093,187.812066 L267.510377,186.93653 L267.74906,186.066694 L268.096736,184.771448 L268.320873,183.916601 L268.429895,183.494569 L268.643413,182.655008 L268.849602,181.826182 L269.04807,181.009276 L269.238427,180.205481 L269.42028,179.415992 L269.635491,178.448991 L269.835764,177.509714 C270.038059,176.538337 270.212298,175.626931 270.356678,174.783313 L270.416721,174.425936 L270.47397,174.07149 L270.591316,173.311999 C270.637016,173.021076 270.685072,172.725383 270.735545,172.424532 L270.813076,171.96934 L270.893802,171.508945 L271.063614,170.578334 C271.11868,170.28397 271.175658,169.986045 271.234562,169.684476 L271.417068,168.768752 L271.544357,168.150046 L271.75647,167.150074 C271.821078,166.850884 271.887234,166.549172 271.955022,166.244569 L272.057938,165.785448 L272.215909,165.093024 L272.461038,164.045201 L272.587588,163.515778 L272.716925,162.982151 L272.982347,161.908781 L273.257231,160.825205 L273.540931,159.733818 L273.686224,159.184652 L273.833946,158.632697 L274.134767,157.527444 L274.444192,156.415159 L274.760693,155.301329 L274.921852,154.742952 L275.085095,154.183138 L275.415989,153.06551 L275.668616,152.227055 L275.924958,151.388829 L276.271473,150.275054 L276.447048,149.718931 L276.624343,149.162825 L276.982217,148.056599 L277.344518,146.958292 L277.528252,146.409439 L277.897318,145.323076 L278.084289,144.780848 L278.459734,143.708224 L278.743825,142.910828 L279.029374,142.121558 L279.15689,141.772982 L279.411243,141.084594 L279.790895,140.07435 L280.043406,139.414003 L280.295233,138.764757 L280.546337,138.126733 L280.797076,137.499075 L281.170677,136.581562 L281.418945,135.983764 L281.666319,135.397726 L281.913264,134.822418 L282.280602,133.984859 L282.524565,133.440908 L282.767478,132.90924 L283.00931,132.38997 L283.250032,131.883208 L283.489615,131.389066 L283.786254,130.791669 L284.083433,130.209627 L284.318848,129.760494 L284.553032,129.324454 L284.84233,128.800939 L285.133048,128.292273 L285.418054,127.810972 L285.47732,127.713146 L285.705297,127.343987 L285.929518,126.992364 L286.04502,126.815844 L286.269064,126.482359 L286.43705,126.240307 L286.605611,126.004487 L286.828084,125.704256 L287.04402,125.425107 C287.798504,124.471652 288.529968,123.813529 289.248796,123.405808 L289.317952,123.367252 Z M242.291487,180.842777 L241.968867,180.848514 C241.029136,180.880919 240.032939,181.047808 238.97966,181.346663 L238.524758,181.482816 L238.134954,181.61046 L237.810825,181.723895 L237.484998,181.844522 C236.786659,182.109814 236.067431,182.426052 235.324649,182.793966 L234.763105,183.079602 L234.325254,183.312433 L234.02505,183.476952 L233.721542,183.647238 L233.418095,183.821354 L232.844898,184.160476 L232.265437,184.516368 L231.793199,184.815687 L231.553108,184.970947 L231.313699,185.127806 L230.83269,185.448947 L230.34437,185.78288 L229.973733,186.041489 L229.600923,186.305981 L229.099862,186.668157 L228.84535,186.854976 L228.59103,187.043545 L228.079706,187.428249 L227.819148,187.627068 L227.300171,188.028568 L226.772304,188.444196 L226.159475,188.935393 L226.143374,188.906295 L226.720565,188.444196 L227.248124,188.028568 L227.766797,187.627068 L228.027204,187.428249 L228.53823,187.043545 L228.792401,186.854976 L229.046765,186.668157 L229.547534,186.305981 L229.920126,186.041489 L230.290546,185.78288 L230.778582,185.448947 L231.259311,185.127806 L231.49858,184.970947 L231.738531,184.815687 L232.210494,184.516368 L232.789616,184.160476 L233.362479,183.821354 L233.665749,183.647238 L233.96908,183.476952 L234.269109,183.312433 L234.706705,183.079602 C235.649561,182.587355 236.554595,182.176137 237.42701,181.844522 L237.752646,181.723895 L238.076586,181.61046 L238.466163,181.482816 C239.834453,181.052086 241.109132,180.836979 242.291487,180.842777 Z M211.739374,177.025295 L211.580304,177.027122 L211.372612,177.032754 L211.170563,177.042149 L210.962659,177.055682 C207.194439,177.336442 203.344572,179.550504 199.384337,183.666921 L199.024011,184.046381 L198.585647,184.521236 L198.146372,185.01153 C197.560059,185.675542 196.97129,186.380697 196.379975,187.126896 L195.936009,187.694239 L195.791084,187.882477 L195.785374,187.845295 L195.902256,187.694239 C196.642568,186.735846 197.378866,185.841545 198.11133,185.01153 L198.550349,184.521236 L198.988457,184.046381 C203.073234,179.686465 207.039998,177.34495 210.920141,177.055682 L211.127924,177.042149 L211.329855,177.032754 L211.537426,177.027122 L211.72765,177.025421 L211.739374,177.025295 Z M167.071846,176.270295 C165.414991,176.270295 164.071846,177.613441 164.071846,179.270295 C164.071846,180.92715 165.414991,182.270295 167.071846,182.270295 C168.7287,182.270295 170.071846,180.92715 170.071846,179.270295 C170.071846,177.613441 168.7287,176.270295 167.071846,176.270295 Z M288.647543,157.987844 L288.611415,158.237419 L288.611415,158.237419 L288.575541,158.484179 L288.297763,160.356774 L287.973738,162.443115 L287.675766,164.245644 L287.509614,165.190423 L287.353015,166.032326 L287.159187,166.994376 L286.945148,167.965392 L286.776801,168.710529 L286.776801,168.710529 L286.60848,169.441499 L286.272319,170.860629 L286.188453,171.206436 L286.188453,171.206436 L286.104681,171.548634 L285.770798,172.881142 L285.687691,173.205149 L285.687691,173.205149 L285.604755,173.525489 L285.274969,174.769986 L284.948926,175.955038 L284.744875,176.673684 L284.460317,177.643789 L284.195535,178.508542 L284.050527,178.960133 C283.681788,180.061128 284.275399,181.252583 285.376394,181.621322 C286.427344,181.9733 287.560717,181.448427 287.982287,180.442403 L288.037584,180.295455 L288.061542,180.223217 L288.394021,179.162585 L288.682803,178.191574 L288.889856,177.47175 L289.164888,176.487648 L289.248954,176.180702 L289.248954,176.180702 L289.33325,175.870015 L289.672485,174.590046 L289.843155,173.927862 L289.843155,173.927862 L290.014391,173.25098 L290.358156,171.853429 L290.53048,171.132913 L290.53048,171.132913 L290.702965,170.398004 L291.048007,168.885315 L291.220361,168.107688 L291.369873,167.396167 L291.528058,166.58433 L291.694982,165.671916 L291.931252,164.298451 L292.118817,163.150325 L292.382845,161.461621 L292.809072,158.589 C292.967859,157.489789 292.245545,156.466529 291.17673,156.234348 L291.028885,156.207658 L290.872771,156.190932 C289.784647,156.114837 288.806002,156.890905 288.647543,157.987844 Z M167.977422,124.433229 C166.604393,124.389747 165.415288,125.420062 165.281077,126.806907 L165.21057,127.553825 L165.142788,128.309288 L165.015393,129.845852 L164.95578,130.626957 L164.89889,131.41661 L164.793276,133.021568 L164.768573,133.428152 L164.744551,133.836875 L164.655265,135.49315 L164.634643,135.912565 L164.614702,136.33412 L164.541736,138.04173 L164.509332,138.908373 L164.479647,139.783575 L164.428431,141.559661 L164.388086,143.369999 L164.379698,143.827936 L164.371989,144.288014 L164.347945,146.149743 L164.334763,148.045743 L164.332442,149.976023 L164.340978,151.940591 L164.360368,153.939455 L164.390608,155.972625 L164.399864,156.486278 L164.409797,157.002076 L164.456309,159.086718 L164.513664,161.205685 L164.58186,163.358986 L164.660893,165.546629 L164.750761,167.768623 C164.812466,169.218689 166.037998,170.344178 167.488064,170.282473 C168.93813,170.220768 170.063619,168.995235 170.001914,167.545169 L169.978753,166.994121 L169.956259,166.445226 L169.872954,164.271192 L169.800321,162.131635 L169.738355,160.026563 L169.687055,157.955983 L169.646417,155.919905 L169.616438,153.918337 L169.610608,153.423339 L169.605444,152.930497 L169.591448,150.98071 L169.589614,150.498658 L169.588445,150.018764 L169.590425,148.120776 L169.603052,146.25733 L169.626323,144.428436 L169.660235,142.634101 L169.704785,140.874335 L169.75997,139.149144 L169.775428,138.72325 L169.79155,138.299518 L169.862682,136.626208 L169.944441,134.987495 L170.036825,133.383387 L170.13983,131.813893 L170.16724,131.426929 L170.195314,131.042129 L170.314246,129.524572 C170.376365,128.774451 170.442465,128.037318 170.512543,127.313178 C170.646969,125.924111 169.67417,124.683152 168.31487,124.465464 L168.149945,124.444309 L167.977422,124.433229 Z M291.071846,144.270295 C289.414991,144.270295 288.071846,145.613441 288.071846,147.270295 C288.071846,148.92715 289.414991,150.270295 291.071846,150.270295 C292.7287,150.270295 294.071846,148.92715 294.071846,147.270295 C294.071846,145.613441 292.7287,144.270295 291.071846,144.270295 Z M301.725715,128.62148 C301.989152,129.95891 302.074525,131.695585 302.071782,133.645999 L302.068341,134.107295 L302.064298,133.686902 C302.017447,130.549724 301.717815,127.842826 300.780184,126.019117 C298.936502,122.433121 293.999916,122.896282 290.890235,122.896282 C290.847493,122.896282 290.804738,122.897361 290.761966,122.899513 C290.775021,122.898841 290.788059,122.897524 290.801095,122.896282 C297.108298,122.295305 300.614367,122.979318 301.725715,128.62148 Z M170.071846,112.270295 C168.414991,112.270295 167.071846,113.613441 167.071846,115.270295 C167.071846,116.92715 168.414991,118.270295 170.071846,118.270295 C171.7287,118.270295 173.071846,116.92715 173.071846,115.270295 C173.071846,113.613441 171.7287,112.270295 170.071846,112.270295 Z" id="Combined-Shape" fill-rule="nonzero"></path>
                <path d="M351.028439,202.949247 L332.700843,197.309987 C331.645118,196.985149 331.052618,195.865981 331.377456,194.810257 C331.579647,194.153138 332.105185,193.645935 332.769067,193.467197 L350.959924,188.569659 C351.648238,188.384344 352.185894,187.846688 352.371209,187.158374 L357.268747,168.967517 C357.555906,167.900928 358.653336,167.269074 359.719926,167.556233 C360.383808,167.73497 360.909347,168.242174 361.111537,168.899292 L366.750798,187.226889 C366.950896,187.877208 367.467889,188.381188 368.123096,188.564646 L385.64973,193.472103 C386.71339,193.769928 387.334223,194.87363 387.036398,195.937291 C386.855083,196.584843 386.360485,197.097931 385.720021,197.302879 L367.071846,203.270295 L367.071846,203.270295 L361.104429,221.918471 C360.767783,222.97049 359.642048,223.550414 358.59003,223.213768 C357.949566,223.008819 357.454968,222.495731 357.273653,221.848179 L352.366196,204.321546 C352.182738,203.666338 351.678758,203.149345 351.028439,202.949247 Z" id="Path-7"></path>
                <path d="M56.0284393,214.949247 L37.7008426,209.309987 C36.6451183,208.985149 36.052618,207.865981 36.3774563,206.810257 C36.5796467,206.153138 37.1051854,205.645935 37.7690673,205.467197 L55.9599244,200.569659 C56.6482378,200.384344 57.1858939,199.846688 57.371209,199.158374 L62.2687475,180.967517 C62.5559062,179.900928 63.6533362,179.269074 64.7199259,179.556233 C65.3838079,179.73497 65.9093465,180.242174 66.111537,180.899292 L71.7507975,199.226889 C71.9508955,199.877208 72.4678885,200.381188 73.1230957,200.564646 L90.6497295,205.472103 C91.7133902,205.769928 92.3342227,206.87363 92.0363977,207.937291 C91.8550833,208.584843 91.3604852,209.097931 90.7200211,209.302879 L72.0718456,215.270295 L72.0718456,215.270295 L66.1044295,233.918471 C65.7677835,234.97049 64.6420484,235.550414 63.5900297,235.213768 C62.9495657,235.008819 62.4549676,234.495731 62.2736531,233.848179 L57.3661956,216.321546 C57.1827376,215.666338 56.6787577,215.149345 56.0284393,214.949247 Z" id="Path-7"></path>
                <path d="M101.028439,149.449247 L95.50563,147.749921 C94.4809949,147.434649 93.9059428,146.34844 94.2212151,145.323804 C94.4174514,144.686037 94.9275139,144.193769 95.5718456,144.020295 L100.959924,142.569659 C101.648238,142.384344 102.185894,141.846688 102.371209,141.158374 L103.821846,135.770295 C104.100548,134.735115 105.165661,134.121868 106.200841,134.400571 C106.845173,134.574045 107.355235,135.066312 107.551472,135.70408 L109.250798,141.226889 C109.450896,141.877208 109.967889,142.381188 110.623096,142.564646 L115.821846,144.020295 C116.857,144.310139 117.461194,145.384261 117.17135,146.419415 C116.994895,147.049612 116.513553,147.548949 115.890253,147.748405 L109.571846,149.770295 L109.571846,149.770295 L107.549955,156.088703 C107.222331,157.112527 106.126767,157.676909 105.102943,157.349285 C104.479643,157.14983 103.998301,156.650492 103.821846,156.020295 L102.366196,150.821546 C102.182738,150.166338 101.678758,149.649345 101.028439,149.449247 Z" id="Path-7"></path>
                <path d="M330.028439,279.449247 L324.50563,277.749921 C323.480995,277.434649 322.905943,276.34844 323.221215,275.323804 C323.417451,274.686037 323.927514,274.193769 324.571846,274.020295 L329.959924,272.569659 C330.648238,272.384344 331.185894,271.846688 331.371209,271.158374 L332.821846,265.770295 C333.100548,264.735115 334.165661,264.121868 335.200841,264.400571 C335.845173,264.574045 336.355235,265.066312 336.551472,265.70408 L338.250798,271.226889 C338.450896,271.877208 338.967889,272.381188 339.623096,272.564646 L344.821846,274.020295 C345.857,274.310139 346.461194,275.384261 346.17135,276.419415 C345.994895,277.049612 345.513553,277.548949 344.890253,277.748405 L338.571846,279.770295 L338.571846,279.770295 L336.549955,286.088703 C336.222331,287.112527 335.126767,287.676909 334.102943,287.349285 C333.479643,287.14983 332.998301,286.650492 332.821846,286.020295 L331.366196,280.821546 C331.182738,280.166338 330.678758,279.649345 330.028439,279.449247 Z" id="Path-7"></path>
            </g>
        </g>
    </g>
</svg>