<svg width="24" height="24" viewBox="0 0 24 24" xmlns="http://www.w3.org/2000/svg">
<path fill-rule="evenodd" clip-rule="evenodd" d="M11.2 24H12.8L12.8 12.8H24V11.2H12.8L12.8 0H11.2L11.2 11.2H0V12.8H11.2L11.2 24Z" />
<path fill-rule="evenodd" clip-rule="evenodd" d="M11.2 24H12.8L12.8 12.8H24V11.2H12.8L12.8 0H11.2L11.2 11.2H0V12.8H11.2L11.2 24Z" />
<path fill-rule="evenodd" clip-rule="evenodd" d="M11.2 24H12.8L12.8 12.8H24V11.2H12.8L12.8 0H11.2L11.2 11.2H0V12.8H11.2L11.2 24Z" />
<path fill-rule="evenodd" clip-rule="evenodd" d="M11.2 24H12.8L12.8 12.8H24V11.2H12.8L12.8 0H11.2L11.2 11.2H0V12.8H11.2L11.2 24Z" />
</svg>
