<svg width="20" height="20" viewBox="0 0 20 20" fill="none" xmlns="http://www.w3.org/2000/svg">
<path fill-rule="evenodd" clip-rule="evenodd" d="M10 1.66666C5.40002 1.66666 1.66669 5.39999 1.66669 9.99999C1.66669 14.6 5.40002 18.3333 10 18.3333C14.6 18.3333 18.3334 14.6 18.3334 9.99999C18.3334 5.39999 14.6 1.66666 10 1.66666ZM15.3 14.025C14.1084 12.575 11.2167 12.0833 10 12.0833C8.78335 12.0833 5.89169 12.575 4.70002 14.025C3.85002 12.9083 3.33335 11.5167 3.33335 9.99999C3.33335 6.32499 6.32502 3.33332 10 3.33332C13.675 3.33332 16.6667 6.32499 16.6667 9.99999C16.6667 11.5167 16.15 12.9083 15.3 14.025ZM7.08335 7.91666C7.08335 6.29999 8.38335 4.99999 10 4.99999C11.6167 4.99999 12.9167 6.29999 12.9167 7.91666C12.9167 9.53332 11.6167 10.8333 10 10.8333C8.38335 10.8333 7.08335 9.53332 7.08335 7.91666Z" fill="#1F1F1F"/>
</svg>
